<svg height="512pt" viewBox="-43 0 512 512" width="512pt" xmlns="http://www.w3.org/2000/svg"><path d="m373.332031 0h-298.664062c-5.890625 0-10.667969 4.777344-10.667969 10.667969v490.664062c0 5.890625 4.777344 10.667969 10.667969 10.667969h298.664062c29.398438 0 53.335938-23.9375 53.335938-53.332031v-405.335938c0-29.394531-23.9375-53.332031-53.335938-53.332031zm0 0" fill="#eceff1"/><path d="m85.332031 0h-32c-29.460937 0-53.332031 23.871094-53.332031 53.332031v405.335938c0 29.460937 23.871094 53.332031 53.332031 53.332031h32zm0 0" fill="#455a64"/><path d="m373.332031 512h-320c-29.417969 0-53.332031-23.914062-53.332031-53.332031v-405.335938c0-29.417969 23.914062-53.332031 53.332031-53.332031h320c29.421875 0 53.335938 23.914062 53.335938 53.332031v405.335938c0 29.417969-23.914063 53.332031-53.335938 53.332031zm-320-490.667969c-17.640625 0-32 14.359375-32 32v405.335938c0 17.640625 14.359375 32 32 32h320c17.644531 0 32-14.359375 32-32v-405.335938c0-17.640625-14.355469-32-32-32zm0 0"/><path d="m74.667969 512c-5.890625 0-10.667969-4.777344-10.667969-10.667969v-490.664062c0-5.890625 4.777344-10.667969 10.667969-10.667969 5.886719 0 10.664062 4.777344 10.664062 10.667969v490.664062c0 5.890625-4.777343 10.667969-10.664062 10.667969zm0 0"/><path d="m245.289062 298.667969c-28.4375 0-51.328124-17.089844-53.246093-39.722657-.492188-5.867187 3.859375-11.03125 9.726562-11.519531 5.378907-.492187 11.03125 3.859375 11.519531 9.726563.941407 11.113281 15.296876 20.179687 32 20.179687 17.367188 0 32.042969-9.769531 32.042969-21.332031 0-10.390625-10.109375-17.109375-31.785156-21.097656l-2.347656-.46875c-34.582031-6.316406-51.199219-20.480469-51.199219-42.433594 0-23.53125 23.9375-42.667969 53.375-42.667969 28.4375 0 51.328125 17.089844 53.25 39.722657.488281 5.867187-3.863281 11.03125-9.730469 11.519531-5.503906.40625-11.050781-3.859375-11.519531-9.726563-.9375-11.113281-15.296875-20.179687-32-20.179687-17.386719 0-32.042969 9.769531-32.042969 21.332031 0 10.433594 10.15625 17.152344 31.914063 21.121094.085937.019531 2.199218.425781 2.242187.425781 34.625 6.398437 51.179688 20.566406 51.179688 42.453125 0 23.53125-23.9375 42.667969-53.378907 42.667969zm0 0"/><path d="m245.332031 320c-5.886719 0-10.664062-4.777344-10.664062-10.667969v-170.664062c0-5.890625 4.777343-10.667969 10.664062-10.667969 5.890625 0 10.667969 4.777344 10.667969 10.667969v170.664062c0 5.890625-4.777344 10.667969-10.667969 10.667969zm0 0"/></svg>