<svg height="512pt" viewBox="0 -19 512.00104 512" width="512pt" xmlns="http://www.w3.org/2000/svg"><path d="m99.285156 171.242188h-29.636718v-163.730469l29.636718 20.03125zm0 0" fill="#f9cd45"/><path d="m66.699219 180.359375h34.550781v285.617187h-34.550781zm0 0" fill="#d0cfd1"/><path d="m101.742188 389.359375h-34.550782c-20.246094 0-36.804687-16.5625-36.804687-36.804687 0-20.242188 16.5625-36.804688 36.804687-36.804688h34.550782c20.242187 0 36.804687 16.5625 36.804687 36.804688 0 20.242187-16.5625 36.804687-36.804687 36.804687zm0 0" fill="#f0bca6"/><path d="m140.503906 464.972656h92.277344c-1.617188-5.085937-4.421875-9.871094-8.441406-13.886718l-114.980469-114.984376c-13.4375-13.4375-35.425781-13.4375-48.867187 0-13.4375 13.4375-13.4375 35.425782 0 48.863282zm0 0" fill="#f0bca6"/><path d="m101.742188 315.75h-23.035157c20.242188 0 36.804688 16.5625 36.804688 36.804688 0 20.242187-16.5625 36.804687-36.804688 36.804687h23.035157c20.242187 0 36.804687-16.5625 36.804687-36.804687 0-20.242188-16.5625-36.804688-36.804687-36.804688zm0 0" fill="#e4aa9b"/><path d="m183.136719 364.375h299.550781c2.214844-9.707031 3.378906-19.761719 3.347656-30.0625l-.367187-195.628906c-.234375-78.609375-69.328125-131.402344-153.539063-131.148438-84.207031.25-152.910156 53.457032-152.675781 132.066406l.367187 195.628907c.03125 9.984375 1.175782 19.730469 3.316407 29.144531zm0 0" fill="#91bcee"/><path d="m485.667969 138.683594c-.234375-78.609375-69.328125-131.402344-153.539063-131.148438-3.664062.007813-7.296875.125-10.898437.335938 78.613281 4.59375 141.179687 56.015625 141.402343 130.8125l.371094 195.628906c.03125 10.300781-1.132812 20.355469-3.351562 30.0625h23.039062c2.214844-9.707031 3.378906-19.761719 3.347656-30.0625zm0 0" fill="#4890e3"/><path d="m504.488281 465.125-.0625-20.398438c-.242187-81.527343-67.148437-148.03125-148.675781-147.789062l-50.871094.152344c-81.53125.246094-148.035156 67.148437-147.789062 148.679687l.058594 19.355469zm0 0" fill="#f0bca6"/><path d="m504.425781 444.726562c-.242187-81.527343-67.148437-148.03125-148.675781-147.789062l-18.695312.054688c79.546874 2.082031 144.09375 67.660156 144.335937 147.734374l.0625 20.398438h23.035156zm0 0" fill="#e4aa9b"/><path d="m411.273438 465.125c-55.3125-16.113281-107.378907-75.558594-107.535157-128.652344-.042969-13.621094 1.722657-26.820312 5.050781-39.390625l-3.53125.007813c-81.527343.246094-148.03125 67.152344-147.789062 148.679687l.058594 19.355469zm0 0" fill="#4381db"/><path d="m253.207031 192.980469c-.070312-22.664063-18.496093-40.980469-41.164062-40.914063-22.664063.066406-40.980469 18.496094-40.914063 41.160156.070313 22.664063 18.496094 40.984376 41.164063 40.914063 22.664062-.066406 40.980469-18.496094 40.914062-41.160156zm0 0" fill="#f0bca6"/><path d="m495.214844 192.179688c-.066406-22.664063-18.496094-40.984376-41.160156-40.914063-22.664063.066406-40.984376 18.496094-40.914063 41.160156.066406 22.664063 18.496094 40.984375 41.160156 40.914063 22.664063-.066406 40.980469-18.496094 40.914063-41.160156zm0 0" fill="#f0bca6"/><path d="m250.605469 104.0625c-20.832031 0-37.707031 16.917969-37.652344 37.75l.21875 87.074219c.195313 65.804687 54.199219 119.484375 120.003906 119.289062 65.804688-.199219 119.484375-54.199219 119.289063-120.003906l-.21875-86.546875c-.050782-20.757812-16.894532-37.5625-37.652344-37.5625zm0 0" fill="#f0bca6"/><path d="m212.976562 190.683594.074219 38.082031c.195313 65.804687-13.136719 149.335937 120.003907 149.335937 135.59375 0 119.484374-84.246093 119.289062-150.054687l-.074219-37.363281zm0 0" fill="#91bcee"/><path d="m452.34375 228.046875-.074219-37.363281h-23.035156l.074219 37.363281c.191406 63.867187 15.359375 145.097656-107.699219 149.828125 3.691406.144531 7.5.226562 11.445313.226562 135.59375 0 119.484374-84.246093 119.289062-150.054687zm0 0" fill="#4890e3"/><path d="m302.433594 163.5625c-.019532-6.613281-5.398438-11.960938-12.011719-11.941406-6.617187.019531-11.964844 5.398437-11.945313 12.011718.023438 6.617188 5.402344 11.964844 12.015626 11.945313 6.617187-.019531 11.964843-5.398437 11.941406-12.015625zm0 0"/><path d="m387.050781 163.308594c-.019531-6.613282-5.398437-11.960938-12.015625-11.941406-6.613281.019531-11.960937 5.398437-11.941406 12.015624.019531 6.613282 5.398438 11.960938 12.015625 11.941407 6.613281-.019531 11.960937-5.398438 11.941406-12.015625zm0 0"/><path d="m130.796875 40.5625c.011719.480469.035156.960938.035156 1.441406v74.410156c0 25.855469-21.035156 46.890626-46.890625 46.890626-25.855468 0-46.890625-21.035157-46.890625-46.890626v-74.410156c0-.484375.023438-.960937.035157-1.441406l-29.578126 27.042969v56.683593c0 42.140626 34.289063 76.429688 76.433594 76.429688 42.140625 0 76.429688-34.289062 76.429688-76.429688v-56.683593zm0 0" fill="#f9cd45"/><g fill="#18191b"><path d="m332.59375 262.875h.113281c9.402344-.027344 18.378907-3.558594 25.273438-9.945312 3.042969-2.816407 3.226562-7.570313.40625-10.613282-2.820313-3.042968-7.570313-3.226562-10.617188-.40625-4.121093 3.816406-9.484375 5.925782-15.109375 5.945313-.023437 0-.042968 0-.066406 0-5.597656 0-10.953125-2.082031-15.078125-5.859375-3.058594-2.800782-7.8125-2.589844-10.613281.46875-2.800782 3.0625-2.589844 7.8125.46875 10.613281 6.90625 6.324219 15.859375 9.796875 25.222656 9.796875zm0 0"/><path d="m306.433594 129.789062-28.292969-7.488281c-4.015625-1.0625-8.125 1.328125-9.183594 5.339844-1.0625 4.011719 1.328125 8.121094 5.335938 9.183594l28.296875 7.488281c.644531.167969 1.289062.25 1.925781.25 3.328125 0 6.367187-2.222656 7.257813-5.589844 1.0625-4.011718-1.332032-8.121094-5.339844-9.183594zm0 0"/><path d="m387.140625 121.972656-28.25 7.660156c-4.003906 1.085938-6.371094 5.210938-5.285156 9.214844.90625 3.347656 3.9375 5.546875 7.242187 5.546875.652344 0 1.316406-.082031 1.972656-.261719l28.25-7.660156c4.003907-1.082031 6.367188-5.210937 5.28125-9.214844-1.082031-4.003906-5.214843-6.367187-9.210937-5.285156zm0 0"/><path d="m511.9375 444.707031c-.074219-24.542969-6.074219-49.015625-17.347656-70.769531-1.425782-2.75-2.941406-5.457031-4.53125-8.117188 2.347656-10.347656 3.523437-20.953124 3.492187-31.519531l-.210937-112.121093c-.003906-.332032-.03125-.65625-.074219-.976563 5.980469-8.105469 9.488281-18.148437 9.457031-29.046875-.03125-10.71875-3.5625-20.625-9.492187-28.648438 0-.023437.003906-.046874.003906-.074218l-.054687-24.773438c-.117188-39.597656-17.167969-75.4375-48.003907-100.917968-29.460937-24.335938-69.371093-37.7226568-112.445312-37.7226568-.207031 0-.417969 0-.625 0-43.308594.1328128-83.367188 13.7695308-112.800781 38.4023438-30.660157 25.660156-47.480469 61.597656-47.363282 101.191406l.046875 26.226563c-5.464843 8.023437-8.402343 17.492187-8.371093 27.410156.03125 9.882812 3 19.300781 8.476562 27.269531l.214844 114.734375c.027344 8.707032.875 17.4375 2.511718 25.992188-3.957031 6.140625-7.472656 12.546875-10.53125 19.164062l-19.101562-19.101562c.570312-2.832032.871094-5.757813.871094-8.753906 0-22.046876-16.183594-40.378907-37.296875-43.753907v-104.320312c34.207031-10.609375 59.121093-42.542969 59.121093-80.191407v-56.683593c0-2.109375-.886718-4.121094-2.445312-5.542969l-29.574219-27.042969c-2.230469-2.035156-5.460937-2.542969-8.203125-1.28125-2.746094 1.257813-4.46875 4.039063-4.375 7.054688l.011719.390625c.011719.273437.023437.546875.023437.824218v74.40625c0 13.195313-6.53125 24.886719-16.523437 32.039063v-120.910156c0-2.496094-1.238281-4.824219-3.304687-6.222657l-29.640626-20.03125c-2.300781-1.558593-5.273437-1.714843-7.730468-.410156-2.453125 1.304688-3.988282 3.855469-3.988282 6.632813v141.671875c-10.582031-7.066406-17.570312-19.113282-17.570312-32.769532v-74.410156c0-.269531.011719-.539062.019531-.808594l.011719-.410156c.089844-3.015625-1.632812-5.792968-4.378906-7.050781-2.742188-1.257813-5.96875-.75-8.195313 1.285156l-29.578125 27.042969c-1.554687 1.421875-2.441406 3.433594-2.441406 5.542969v56.683593c0 37.671876 24.949219 69.621094 59.1875 80.210938v28.839844c0 4.148437 3.363281 7.511718 7.511719 7.511718 4.148437 0 7.511719-3.363281 7.511719-7.511718v-25.691406c3.195312.371093 6.4375.582031 9.730468.582031 3.316406 0 6.582032-.214844 9.800782-.59375v100.597656h-19.53125v-46.546875c0-4.148438-3.363282-7.511719-7.511719-7.511719-4.148438 0-7.511719 3.363281-7.511719 7.511719v47.285156c-20.625 3.78125-36.3125 21.878906-36.3125 43.582032 0 21.703124 15.6875 39.800781 36.3125 43.578124v69.839844c0 4.148438 3.363281 7.511719 7.511719 7.511719h34.554687c4.148438 0 7.511719-3.363281 7.511719-7.511719v-22.117187l26.425781 26.429687c1.410156 1.410156 3.320313 2.199219 5.3125 2.199219h15.507813c.492187.101563.996093.152344 1.515625.152344h346.960937c1.996094 0 3.910157-.792969 5.320313-2.207031 1.410156-1.414063 2.199218-3.328126 2.191406-5.324219zm-434.777344-423.050781 14.613282 9.875v123.476562c-2.53125.511719-5.148438.785157-7.832032.785157-2.3125 0-4.578125-.214844-6.78125-.597657zm-62.136718 102.632812v-53.375l14.515624-13.269531v58.769531c0 29.996094 24.40625 54.402344 54.402344 54.402344s54.402344-24.40625 54.402344-54.402344v-58.769531l14.515625 13.269531v53.375c0 38-30.917969 68.917969-68.917969 68.917969s-68.917968-30.917969-68.917968-68.917969zm438.230468 199.3125c8.246094-23.933593 7.566406-51.542968 6.933594-76.859374-.050781-2.121094-.101562-4.195313-.148438-6.25 6.617188-.789063 12.804688-2.871094 18.296876-6.003907l.191406 99.847657c.011718 4.613281-.234375 9.230468-.730469 13.824218-7.246094-9.046875-15.496094-17.308594-24.542969-24.558594zm-274.613281-130.398437c-.027344-8.953125 3.433594-17.382813 9.746094-23.734375 4.738281-4.765625 10.65625-7.933594 17.097656-9.226562l.074219 29.308593c-.058594.378907-.09375.761719-.09375 1.148438l.066406 35.277343c-6.390625-1.277343-12.273438-4.394531-17-9.097656-6.351562-6.3125-9.863281-14.71875-9.890625-23.675781zm41.820313-51.40625c-.019532-8.066406 3.105468-15.65625 8.804687-21.363281 5.695313-5.710938 13.273437-8.855469 21.339844-8.855469h163.984375c16.582031 0 30.101562 13.488281 30.144531 30.066406l.105469 41.527344h-224.273438zm267.238281 50.40625c.050781 16.625-11.8125 30.390625-27.730469 33.125l-.167969-66.066406c15.773438 2.675781 27.847657 16.410156 27.898438 32.941406zm-258.753907-142.261719c26.746094-22.382812 63.402344-34.777344 103.207032-34.894531.195312-.003906.386718-.003906.582031-.003906 39.585937 0 76.101563 12.164062 102.871094 34.28125 27.335937 22.585937 42.445312 54.328125 42.550781 89.375l.023438 11.433593c-5.550782-3.171874-11.78125-5.28125-18.417969-6.046874l-.003907-2.480469c-.0625-24.84375-20.324218-45.054688-45.167968-45.054688h-163.984375c-12.085938 0-23.441407 4.714844-31.976563 13.269531-8.535156 8.558594-13.222656 19.925782-13.191406 32.011719l.007812 3.191407c-6.574218.90625-12.835937 3.128906-18.457031 6.550781l-.023437-12c-.105469-35.054688 14.804687-66.886719 41.980468-89.632813zm-41.613281 285.277344-.1875-100.496094c5.585938 3.375 11.796875 5.570313 18.3125 6.464844-.019531 1.429688-.039062 2.875-.058593 4.339844-.058594 4.152344-.117188 8.34375-.140626 12.546875-.023437 4.148437 3.324219 7.527343 7.472657 7.550781h.039062c4.132813 0 7.492188-3.335938 7.511719-7.472656.023438-4.15625.082031-8.304688.136719-12.417969.074219-5.128906.140625-10.410156.140625-15.535156.078125-.433594.125-.875.121094-1.332031l-.074219-30.671876h224.167969l.058593 29.875c.019531 6.242188.179688 12.753907.339844 19.046876.894531 35.960937 1.824219 73.144531-21.21875 96.773437-17.523437 17.964844-47.257813 26.695313-90.898437 26.695313-93.304688 0-109.035157-41.691407-112.132813-86.742188-.285156-4.140625-3.882813-7.261719-8.011719-6.980469-4.136718.285157-7.261718 3.871094-6.976562 8.007813.710937 10.359375 2.210937 23.136718 6.425781 35.984375-9.121094 6.867187-17.382813 14.640625-24.6875 23.144531-.210937-2.925781-.328125-5.855469-.339844-8.78125zm-149.433593 17.335938c0-16.152344 13.140624-29.292969 29.292968-29.292969h34.550782c16.152343 0 29.292968 13.140625 29.292968 29.292969 0 16.152343-13.140625 29.292968-29.292968 29.292968h-34.550782c-16.152344 0-29.292968-13.140625-29.292968-29.292968zm55.839843 105.910156h-19.527343v-49.160156l19.53125 19.527343v29.632813zm-10.714843-61.59375h18.71875c15.652343 0 29.425781-8.164063 37.3125-20.449219l19.15625 19.152344c-5.445313 16.003906-8.304688 32.949219-8.253907 50.214843l.035157 11.671876h-6.378907zm81.992187 60.746094-.035156-11.871094c-.128907-42.949219 19.699219-83.71875 53.378906-110.53125 3.648437 7.019531 8.371094 13.789062 14.515625 19.894531 16.777344 16.667969 41.539062 26.378906 75.289062 29.441406 14.160157 29.511719 39.289063 56.109375 67.742188 73.066407zm247.390625 0c-34.4375-10.375-68.136719-38.609376-86.820312-72.097657 2.453124.058594 4.9375.09375 7.46875.09375 47.90625 0 81.15625-10.214843 101.652343-31.230469 4.957031-5.082031 8.972657-10.628906 12.238281-16.511718 14.078126 11.953125 25.84375 26.65625 34.304688 42.980468 10.328125 19.921876 15.597656 41.421876 15.664062 63.902344l.039063 12.863282zm0 0"/></g></svg>