<?xml version="1.0" encoding="iso-8859-1"?>
<!-- Generator: Adobe Illustrator 19.0.0, SVG Export Plug-In . SVG Version: 6.00 Build 0)  -->
<svg version="1.1" id="Layer_1" xmlns="http://www.w3.org/2000/svg" xmlns:xlink="http://www.w3.org/1999/xlink" x="0px" y="0px"
	 viewBox="0 0 504.32 504.32" style="enable-background:new 0 0 504.32 504.32;" xml:space="preserve">
<g transform="translate(1 1)">
	<path style="fill:#FF7474;" d="M458.093,219.16L283.16,44.226l-1.707-1.707c16.213-18.773,39.253-31.573,66.56-36.693V6.68
		l146.773,146.773l0,0C489.667,180.76,476.867,202.946,458.093,219.16L458.093,219.16z M252.44,116.76l133.12,133.12l0,0
		c-5.12,0.853-10.24,0.853-16.213,0.853h-85.333H249.88V131.267c0-5.12,0-10.24,0.853-15.36L252.44,116.76z M247.32,392.387h1.707
		c-3.413,26.453-13.653,48.64-29.013,65.707l-2.56-1.707L41.667,280.6l-0.853-0.853c17.067-15.36,40.107-24.747,66.56-28.16l0,0
		L247.32,392.387z M122.733,498.2H3.267V378.733c0-11.093,0.853-21.333,2.56-31.573l145.92,145.92v1.707
		C143.213,497.346,132.973,498.2,122.733,498.2z"/>
	<path style="fill:#80D6FA;" d="M378.733,3.267H498.2v119.467c0,11.093-0.853,21.333-3.413,30.72l0,0L348.013,6.68V5.826
		C358.253,4.12,367.64,3.267,378.733,3.267z M458.093,219.16L458.093,219.16c-17.92,17.067-42.667,28.16-71.68,30.72l0,0
		l-133.12-133.12h-1.707c2.56-29.867,13.653-54.613,30.72-73.387l1.707,1.707L458.093,219.16z M250.733,370.2
		c0,7.68-0.853,15.36-1.707,22.187h-1.707L107.373,252.44l0,0c7.68-0.853,15.36-1.707,23.893-1.707h119.467V370.2z M5.827,347.16
		c5.12-29.013,17.067-51.2,34.987-67.413l0.853,0.853l175.787,175.787l2.56,1.707c-17.067,18.773-40.107,31.573-67.413,36.693
		v-1.707L5.827,347.16z"/>
</g>
<path style="fill:#51565F;" d="M123.733,503.467H4.267C1.707,503.467,0,501.76,0,499.2V379.733C0,368.64,0.853,358.4,2.56,348.16
	c0-0.853,0-0.853,0-1.707c11.947-62.293,58.027-98.987,129.707-98.987H217.6c2.56,0,4.267,1.707,4.267,4.267S220.16,256,217.6,256
	h-85.333c-5.12,0-10.24,0-14.507,0.853l103.253,103.253c1.707,1.707,1.707,4.267,0,5.973c-1.707,1.707-4.267,1.707-5.973,0
	L107.52,258.56c-23.04,3.413-42.667,11.093-58.027,23.893l146.773,146.773c1.707,1.707,1.707,4.267,0,5.973
	c-1.707,1.707-4.267,1.707-5.973,0L43.52,288.426c-15.36,15.36-25.6,34.987-30.72,59.733L128,463.36
	c1.707,1.707,1.707,4.267,0,5.973c-1.707,1.707-4.267,1.707-5.973,0L11.093,358.4c-0.853,6.827-1.707,14.507-1.707,22.187v115.2
	h115.2c74.24,0,123.733-49.493,123.733-123.733V133.12c0-79.36,52.907-132.267,132.267-132.267h119.467
	c2.56,0,4.267,1.707,4.267,4.267v119.467c0,79.36-52.907,132.267-132.267,132.267H286.72c-2.56,0-4.267-1.707-4.267-4.267
	c0-2.56,1.707-4.267,4.267-4.267h85.333c2.56,0,4.267,0,6.827,0l-94.72-94.72c-1.707-1.707-1.707-4.267,0-5.973
	c1.707-1.707,4.267-1.707,5.973,0l99.84,99.84c25.6-2.56,46.933-11.947,64-26.453L308.906,75.946c-1.707-1.707-1.707-4.267,0-5.973
	s4.267-1.707,5.973,0L459.946,215.04c15.36-15.36,26.453-34.987,31.573-58.027L377.173,42.667c-1.707-1.707-1.707-4.267,0-5.973
	s4.267-1.707,5.973,0L494.08,147.626c0.853-6.827,1.707-14.507,1.707-22.187V10.24H379.733C305.493,10.24,256,59.733,256,133.973
	v238.933C256,450.56,203.093,503.467,123.733,503.467z"/>
<g>
</g>
<g>
</g>
<g>
</g>
<g>
</g>
<g>
</g>
<g>
</g>
<g>
</g>
<g>
</g>
<g>
</g>
<g>
</g>
<g>
</g>
<g>
</g>
<g>
</g>
<g>
</g>
<g>
</g>
</svg>
